<?xml version="1.0" encoding="UTF-8"?>
<svg version="1.1" xmlns="http://www.w3.org/2000/svg" width="5476" height="5476">
<path d="M0 0 C2.84703127 -0.00098049 5.69405669 -0.00497692 8.54108536 -0.00880873 C14.69836984 -0.01552576 20.85561875 -0.01498198 27.01290391 -0.00944164 C36.23072858 -0.00118524 45.44852492 -0.00463768 54.6663503 -0.01020693 C70.38431113 -0.01936737 86.10225897 -0.01912629 101.82022095 -0.01364517 C117.73411064 -0.00812966 133.6479918 -0.0069924 149.56188202 -0.01111984 C151.07336766 -0.01150736 151.07336766 -0.01150736 152.61538837 -0.01190271 C156.71989229 -0.01296933 160.82439621 -0.01406676 164.92890011 -0.01520326 C203.10307816 -0.0257658 241.27725049 -0.02650638 279.45142937 -0.02090836 C281.14606382 -0.02065997 281.14606382 -0.02065997 282.87493332 -0.02040657 C284.00651571 -0.02024071 285.13809811 -0.02007485 286.30397088 -0.01990396 C320.81108389 -0.0148529 355.31819454 -0.01355698 389.82530785 -0.01594925 C392.13817367 -0.01610421 394.45103949 -0.01625852 396.76390531 -0.01641219 C406.05901308 -0.01703316 415.35412084 -0.01767049 424.64922859 -0.01833172 C450.63212553 -0.02016557 476.61502247 -0.02130689 502.59791946 -0.02190399 C504.37261186 -0.02194493 504.37261186 -0.02194493 506.18315664 -0.02198669 C543.87262358 -0.02280503 581.56208971 -0.02055268 619.2515564 -0.01620483 C621.08466639 -0.01599409 621.08466639 -0.01599409 622.95480891 -0.01577908 C642.79900389 -0.01348934 662.64319885 -0.01105034 682.48739381 -0.00859874 C761.16074247 0.0011104 839.83408431 0.00066561 918.50743294 -0.00905991 C938.32984034 -0.01150244 958.15224773 -0.0139246 977.97465515 -0.01620483 C979.19531568 -0.01634573 980.41597621 -0.01648663 981.67362646 -0.01663179 C1019.31568318 -0.02094685 1056.95773933 -0.02277219 1094.5997963 -0.02190399 C1095.78218468 -0.02187682 1096.96457307 -0.02184965 1098.1827914 -0.02182166 C1124.143227 -0.02119659 1150.10366254 -0.01992908 1176.06409807 -0.01808299 C1185.35392739 -0.01742475 1194.64375672 -0.01679858 1203.93358604 -0.01618156 C1206.24451458 -0.01602679 1208.55544312 -0.01586933 1210.86637166 -0.01570917 C1245.35433863 -0.01332562 1279.84230294 -0.01534786 1314.33026958 -0.02040657 C1315.45919793 -0.02057216 1316.58812627 -0.02073775 1317.75126457 -0.02090836 C1318.87809719 -0.02107372 1320.0049298 -0.02123909 1321.16590886 -0.02140946 C1359.24377011 -0.02693632 1397.32162452 -0.02487569 1435.3994848 -0.01434687 C1439.49624135 -0.01324225 1443.59299792 -0.01216883 1447.68975449 -0.01111984 C1448.69511465 -0.01085943 1449.70047482 -0.01059902 1450.73630044 -0.01033071 C1466.59678605 -0.00639998 1482.45726308 -0.00911737 1498.31774791 -0.01465785 C1513.94793276 -0.01997418 1529.57810328 -0.01804472 1545.20828634 -0.00862968 C1553.55457562 -0.00379274 1561.90083541 -0.00198946 1570.24712358 -0.00944164 C1664.14054851 -0.08846132 1751.39677646 9.65899328 1892.2740345 74.79074478 C1894.51968474 76.09844924 1896.77624429 77.38306787 1899.04063606 78.65793228 C1923.58595484 92.59816984 1947.1661436 109.12377028 1968.78282356 127.25168228 C1970.61557181 128.73157383 1972.44891821 130.21072488 1974.28282356 131.68918228 C1979.07548942 135.60672513 1983.66243994 139.71281215 1988.21641731 143.90402603 C1990.45841312 145.95492326 1992.73073385 147.95645762 1995.03282356 149.93918228 C1998.13671327 152.63300526 2001.03150628 155.47382533 2003.90587044 158.40915298 C2005.72479841 160.19472132 2007.60576763 161.84480417 2009.54844856 163.49386978 C2013.64698007 167.05936617 2017.35744383 170.88181133 2021.03282356 174.87668228 C2021.99889534 175.91828506 2021.99889534 175.91828506 2022.98448372 176.98093033 C2024.29488928 178.39468681 2025.60366858 179.80995257 2026.91075325 181.22677994 C2028.63365112 183.09033171 2030.36598693 184.94439255 2032.10313606 186.79465103 C2037.40837028 192.4605243 2042.52909591 198.20863357 2047.38829231 204.26730728 C2049.16523041 206.48195771 2050.95778158 208.67660609 2052.77110481 210.86105728 C2113.25429788 283.96635049 2153.24243076 374.06171777 2172.78282356 492.25168228 C2172.90817482 493.24996048 2172.90817482 493.24996048 2173.03605843 494.26840591 C2178.23772201 536.34140243 2177.99026997 580.19173135 2172.78282356 622.25168228 C2172.697967 622.94856155 2172.61311043 623.64544083 2172.52568245 624.36343765 C2162.66861286 704.74192412 2135.87603424 782.89611689 2081.78282356 871.25168228 C2080.95137825 872.50416763 2080.95137825 872.50416763 2080.10313606 873.78195572 C2072.69365014 884.88313973 2064.92830988 895.67993961 2056.78282356 906.25168228 C2056.31634407 906.85850845 2055.84986458 907.46533463 2055.36924934 908.09054947 C2046.62408524 919.43446902 2037.46878009 930.38990383 2027.82969856 940.98605728 C2025.94760235 943.06929355 2024.11120044 945.18387161 2022.28282356 947.31418228 C2019.0908131 950.98647209 2015.68037301 954.39585073 2012.18907356 957.78293228 C2010.2829322 959.73858381 2008.51769012 961.71284809 2006.74766731 963.78683853 C2002.36916736 968.80523597 1997.66870673 973.47277368 1992.93907356 978.15793228 C1991.52090706 979.57031161 1990.10274349 980.98269389 1988.6847477 982.3952446 C1985.72215911 985.34480252 1982.75498336 988.2897454 1979.7886219 991.23550797 C1977.33701325 993.67045334 1974.88645025 996.10643045 1972.43846321 998.54501724 C1970.61213927 1000.36388842 1968.78356995 1002.1805088 1966.95237923 1003.99448013 C1963.27736679 1007.65500245 1959.6640681 1011.31644158 1956.28282356 1015.25168228 C1952.0853481 1020.13688834 1947.5125853 1024.62742704 1942.93907356 1029.15793228 C1941.52090706 1030.57031161 1940.10274349 1031.98269389 1938.6847477 1033.3952446 C1935.72215911 1036.34480252 1932.75498336 1039.2897454 1929.7886219 1042.23550797 C1927.33701325 1044.67045334 1924.88645025 1047.10643045 1922.43846321 1049.54501724 C1920.61213927 1051.36388842 1918.78356995 1053.1805088 1916.95237923 1054.99448013 C1913.27736679 1058.65500245 1909.6640681 1062.31644158 1906.28282356 1066.25168228 C1902.0853481 1071.13688834 1897.5125853 1075.62742704 1892.93907356 1080.15793228 C1891.52090706 1081.57031161 1890.10274349 1082.98269389 1888.6847477 1084.3952446 C1885.72215911 1087.34480252 1882.75498336 1090.2897454 1879.7886219 1093.23550797 C1877.33701325 1095.67045334 1874.88645025 1098.10643045 1872.43846321 1100.54501724 C1870.61213927 1102.36388842 1868.78356995 1104.1805088 1866.95237923 1105.99448013 C1863.27736679 1109.65500245 1859.6640681 1113.31644158 1856.28282356 1117.25168228 C1852.0853481 1122.13688834 1847.5125853 1126.62742704 1842.93907356 1131.15793228 C1841.52090706 1132.57031161 1840.10274349 1133.98269389 1838.6847477 1135.3952446 C1835.72215911 1138.34480252 1832.75498336 1141.2897454 1829.7886219 1144.23550797 C1827.33701325 1146.67045334 1824.88645025 1149.10643045 1822.43846321 1151.54501724 C1820.61213927 1153.36388842 1818.78356995 1155.1805088 1816.95237923 1156.99448013 C1813.27736679 1160.65500245 1809.6640681 1164.31644158 1806.28282356 1168.25168228 C1802.0853481 1173.13688834 1797.5125853 1177.62742704 1792.93907356 1182.15793228 C1791.52090706 1183.57031161 1790.10274349 1184.98269389 1788.6847477 1186.3952446 C1785.72215911 1189.34480252 1782.75498336 1192.2897454 1779.7886219 1195.23550797 C1777.33701325 1197.67045334 1774.88645025 1200.10643045 1772.43846321 1202.54501724 C1770.61213927 1204.36388842 1768.78356995 1206.1805088 1766.95237923 1207.99448013 C1763.27736679 1211.65500245 1759.6640681 1215.31644158 1756.28282356 1219.25168228 C1752.0853481 1224.13688834 1747.5125853 1228.62742704 1742.93907356 1233.15793228 C1741.52090706 1234.57031161 1740.10274349 1235.98269389 1738.6847477 1237.3952446 C1735.72215911 1240.34480252 1732.75498336 1243.2897454 1729.7886219 1246.23550797 C1727.33701325 1248.67045334 1724.88645025 1251.10643045 1722.43846321 1253.54501724 C1720.61213927 1255.36388842 1718.78356995 1257.1805088 1716.95237923 1258.99448013 C1713.27736679 1262.65500245 1709.6640681 1266.31644158 1706.28282356 1270.25168228 C1702.0853481 1275.13688834 1697.5125853 1279.62742704 1692.93907356 1284.15793228 C1691.52090706 1285.57031161 1690.10274349 1286.98269389 1688.6847477 1288.3952446 C1685.72215911 1291.34480252 1682.75498336 1294.2897454 1679.7886219 1297.23550797 C1677.33701325 1299.67045334 1674.88645025 1302.10643045 1672.43846321 1304.54501724 C1670.61213927 1306.36388842 1668.78356995 1308.1805088 1666.95237923 1309.99448013 C1663.27736679 1313.65500245 1659.6640681 1317.31644158 1656.28282356 1321.25168228 C1652.0853481 1326.13688834 1647.5125853 1330.62742704 1642.93907356 1335.15793228 C1641.52090706 1336.57031161 1640.10274349 1337.98269389 1638.6847477 1339.3952446 C1635.72215911 1342.34480252 1632.75498336 1345.2897454 1629.7886219 1348.23550797 C1627.33701325 1350.67045334 1624.88645025 1353.10643045 1622.43846321 1355.54501724 C1620.61213927 1357.36388842 1618.78356995 1359.1805088 1616.95237923 1360.99448013 C1613.27736679 1364.65500245 1609.6640681 1368.31644158 1606.28282356 1372.25168228 C1602.0853481 1377.13688834 1597.5125853 1381.62742704 1592.93907356 1386.15793228 C1591.52090706 1387.57031161 1590.10274349 1388.98269389 1588.6847477 1390.3952446 C1585.72215911 1393.34480252 1582.75498336 1396.2897454 1579.7886219 1399.23550797 C1577.33701325 1401.67045334 1574.88645025 1404.10643045 1572.43846321 1406.54501724 C1570.61213927 1408.36388842 1568.78356995 1410.1805088 1566.95237923 1411.99448013 C1563.27736679 1415.65500245 1559.6640681 1419.31644158 1556.28282356 1423.25168228 C1552.0853481 1428.13688834 1547.5125853 1432.62742704 1542.93907356 1437.15793228 C1541.52090706 1438.57031161 1540.10274349 1439.98269389 1538.6847477 1441.3952446 C1535.72215911 1444.34480252 1532.75498336 1447.2897454 1529.7886219 1450.23550797 C1527.33701325 1452.67045334 1524.88645025 1455.10643045 1522.43846321 1457.54501724 C1520.61213927 1459.36388842 1518.78356995 1461.1805088 1516.95237923 1462.99448013 C1512.65548483 1467.27443241 1508.54145208 1471.62069716 1504.59007454 1476.21957779 C1500.96078857 1480.30041018 1497.03671553 1484.0976921 1493.15782356 1487.93918228 C1492.25209602 1488.8411232 1491.34636848 1489.74306412 1490.41319466 1490.67233658 C1487.0536105 1494.01773672 1483.68951094 1497.3585662 1480.32505989 1500.69906998 C1477.01648006 1503.98460028 1473.71179875 1507.27402019 1470.40782356 1510.56418228 C1469.54721321 1511.41649429 1468.68660286 1512.2688063 1467.79991341 1513.14694595 C1464.17999096 1516.75224605 1460.62681435 1520.36195984 1457.29649544 1524.23801041 C1453.09360481 1529.12707483 1448.51718653 1533.62286908 1443.93907356 1538.15793228 C1442.52090706 1539.57031161 1441.10274349 1540.98269389 1439.6847477 1542.3952446 C1436.72215911 1545.34480252 1433.75498336 1548.2897454 1430.7886219 1551.23550797 C1428.33701325 1553.67045334 1425.88645025 1556.10643045 1423.43846321 1558.54501724 C1421.61213927 1560.36388842 1419.78356995 1562.1805088 1417.95237923 1563.99448013 C1414.27736679 1567.65500245 1410.6640681 1571.31644158 1407.28282356 1575.25168228 C1403.0853481 1580.13688834 1398.5125853 1584.62742704 1393.93907356 1589.15793228 C1392.52090706 1590.57031161 1391.10274349 1591.98269389 1389.6847477 1593.3952446 C1386.72215911 1596.34480252 1383.75498336 1599.2897454 1380.7886219 1602.23550797 C1378.33701325 1604.67045334 1375.88645025 1607.10643045 1373.43846321 1609.54501724 C1371.61213927 1611.36388842 1369.78356995 1613.1805088 1367.95237923 1614.99448013 C1364.27736679 1618.65500245 1360.6640681 1622.31644158 1357.28282356 1626.25168228 C1353.0853481 1631.13688834 1348.5125853 1635.62742704 1343.93907356 1640.15793228 C1342.52090706 1641.57031161 1341.10274349 1642.98269389 1339.6847477 1644.3952446 C1336.72215911 1647.34480252 1333.75498336 1650.2897454 1330.7886219 1653.23550797 C1328.33701325 1655.67045334 1325.88645025 1658.10643045 1323.43846321 1660.54501724 C1321.61213927 1662.36388842 1319.78356995 1664.1805088 1317.95237923 1665.99448013 C1314.27736679 1669.65500245 1310.6640681 1673.31644158 1307.28282356 1677.25168228 C1303.0853481 1682.13688834 1298.5125853 1686.62742704 1293.93907356 1691.15793228 C1292.52090706 1692.57031161 1291.10274349 1693.98269389 1289.6847477 1695.3952446 C1286.72215911 1698.34480252 1283.75498336 1701.2897454 1280.7886219 1704.23550797 C1278.33701325 1706.67045334 1275.88645025 1709.10643045 1273.43846321 1711.54501724 C1271.61213927 1713.36388842 1269.78356995 1715.1805088 1267.95237923 1716.99448013 C1264.27736679 1720.65500245 1260.6640681 1724.31644158 1257.28282356 1728.25168228 C1253.0853481 1733.13688834 1248.5125853 1737.62742704 1243.93907356 1742.15793228 C1242.52090706 1743.57031161 1241.10274349 1744.98269389 1239.6847477 1746.3952446 C1236.72215911 1749.34480252 1233.75498336 1752.2897454 1230.7886219 1755.23550797 C1228.33701325 1757.67045334 1225.88645025 1760.10643045 1223.43846321 1762.54501724 C1221.61213927 1764.36388842 1219.78356995 1766.1805088 1217.95237923 1767.99448013 C1214.27736679 1771.65500245 1210.6640681 1775.31644158 1207.28282356 1779.25168228 C1203.0853481 1784.13688834 1198.5125853 1788.62742704 1193.93907356 1793.15793228 C1192.52090706 1794.57031161 1191.10274349 1795.98269389 1189.6847477 1797.3952446 C1186.72215911 1800.34480252 1183.75498336 1803.2897454 1180.7886219 1806.23550797 C1178.33701325 1808.67045334 1175.88645025 1811.10643045 1173.43846321 1813.54501724 C1171.61213927 1815.36388842 1169.78356995 1817.1805088 1167.95237923 1818.99448013 C1164.27736679 1822.65500245 1160.6640681 1826.31644158 1157.28282356 1830.25168228 C1153.0853481 1835.13688834 1148.5125853 1839.62742704 1143.93907356 1844.15793228 C1142.52090706 1845.57031161 1141.10274349 1846.98269389 1139.6847477 1848.3952446 C1136.72215911 1851.34480252 1133.75498336 1854.2897454 1130.7886219 1857.23550797 C1128.33701325 1859.67045334 1125.88645025 1862.10643045 1123.43846321 1864.54501724 C1121.61213927 1866.36388842 1119.78356995 1868.1805088 1117.95237923 1869.99448013 C1114.27736679 1873.65500245 1110.6640681 1877.31644158 1107.28282356 1881.25168228 C1103.0853481 1886.13688834 1098.5125853 1890.62742704 1093.93907356 1895.15793228 C1092.52090706 1896.57031161 1091.10274349 1897.98269389 1089.6847477 1899.3952446 C1086.72215911 1902.34480252 1083.75498336 1905.2897454 1080.7886219 1908.23550797 C1078.33701325 1910.67045334 1075.88645025 1913.10643045 1073.43846321 1915.54501724 C1071.61213927 1917.36388842 1069.78356995 1919.1805088 1067.95237923 1920.99448013 C1064.27736679 1924.65500245 1060.6640681 1928.31644158 1057.28282356 1932.25168228 C1053.0853481 1937.13688834 1048.5125853 1941.62742704 1043.93907356 1946.15793228 C1042.52090706 1947.57031161 1041.10274349 1948.98269389 1039.6847477 1950.3952446 C1036.72215911 1953.34480252 1033.75498336 1956.2897454 1030.7886219 1959.23550797 C1028.33701325 1961.67045334 1025.88645025 1964.10643045 1023.43846321 1966.54501724 C1021.61213927 1968.36388842 1019.78356995 1970.1805088 1017.95237923 1971.99448013 C1014.27736679 1975.65500245 1010.6640681 1979.31644158 1007.28282356 1983.25168228 C1003.0853481 1988.13688834 998.5125853 1992.62742704 993.93907356 1997.15793228 C992.52090706 1998.57031161 991.10274349 1999.98269389 989.6847477 2001.3952446 C986.72215911 2004.34480252 983.75498336 2007.2897454 980.7886219 2010.23550797 C978.33701325 2012.67045334 975.88645025 2015.10643045 973.43846321 2017.54501724 C971.61213927 2019.36388842 969.78356995 2021.1805088 967.95237923 2022.99448013 C964.27736679 2026.65500245 960.6640681 2030.31644158 957.28282356 2034.25168228 C953.0853481 2039.13688834 948.5125853 2043.62742704 943.93907356 2048.15793228 C942.52090706 2049.57031161 941.10274349 2050.98269389 939.6847477 2052.3952446 C936.72215911 2055.34480252 933.75498336 2058.2897454 930.7886219 2061.23550797 C928.33701325 2063.67045334 925.88645025 2066.10643045 923.43846321 2068.54501724 C921.61213927 2070.36388842 919.78356995 2072.1805088 917.95237923 2073.99448013 C914.27736679 2077.65500245 910.6640681 2081.31644158 907.28282356 2085.25168228 C903.0853481 2090.13688834 898.5125853 2094.62742704 893.93907356 2099.15793228 C892.52090706 2100.57031161 891.10274349 2101.98269389 889.6847477 2103.3952446 C886.72215911 2106.34480252 883.75498336 2109.2897454 880.7886219 2112.23550797 C878.33701325 2114.67045334 875.88645025 2117.10643045 873.43846321 2119.54501724 C871.61213927 2121.36388842 869.78356995 2123.1805088 867.95237923 2124.99448013 C864.27736679 2128.65500245 860.6640681 2132.31644158 857.28282356 2136.25168228 C853.0853481 2141.13688834 848.5125853 2145.62742704 843.93907356 2150.15793228 C842.52090706 2151.57031161 841.10274349 2152.98269389 839.6847477 2154.3952446 C836.72215911 2157.34480252 833.75498336 2160.2897454 830.7886219 2163.23550797 C828.33701325 2165.67045334 825.88645025 2168.10643045 823.43846321 2170.54501724 C821.61213927 2172.36388842 819.78356995 2174.1805088 817.95237923 2175.99448013 C814.27736679 2179.65500245 810.6640681 2183.31644158 807.28282356 2187.25168228 C803.0853481 2192.13688834 798.5125853 2196.62742704 793.93907356 2201.15793228 C792.52090706 2202.57031161 791.10274349 2203.98269389 789.6847477 2205.3952446 C786.72215911 2208.34480252 783.75498336 2211.2897454 780.7886219 2214.23550797 C778.33701325 2216.67045334 775.88645025 2219.10643045 773.43846321 2221.54501724 C771.61213927 2223.36388842 769.78356995 2225.1805088 767.95237923 2226.99448013 C764.27736679 2230.65500245 760.6640681 2234.31644158 757.28282356 2238.25168228 C753.0853481 2243.13688834 748.5125853 2247.62742704 743.93907356 2252.15793228 C742.52090706 2253.57031161 741.10274349 2254.98269389 739.6847477 2256.3952446 C736.72215911 2259.34480252 733.75498336 2262.2897454 730.7886219 2265.23550797 C728.33701325 2267.67045334 725.88645025 2270.10643045 723.43846321 2272.54501724 C721.61213927 2274.36388842 719.78356995 2276.1805088 717.95237923 2277.99448013 C714.27736679 2281.65500245 710.6640681 2285.31644158 707.28282356 2289.25168228 C703.0853481 2294.13688834 698.5125853 2298.62742704 693.93907356 2303.15793228 C692.52090706 2304.57031161 691.10274349 2305.98269389 689.6847477 2307.3952446 C686.72215911 2310.34480252 683.75498336 2313.2897454 680.7886219 2316.23550797 C678.33701325 2318.67045334 675.88645025 2321.10643045 673.43846321 2323.54501724 C671.61213927 2325.36388842 669.78356995 2327.1805088 667.95237923 2328.99448013 C663.67767084 2333.25233387 659.52989143 2337.54217338 655.65159798 2342.16635513 C655.03490242 2342.85451309 654.41820686 2343.54267105 653.78282356 2344.25168228 C653.41716254 2344.81420488 653.05150152 2345.37672747 652.67475986 2345.95629621 C649.93946499 2349.53191743 647.79092163 2351.06313639 643.31192363 2351.90084922 C638.72960217 2352.24120675 634.14575814 2352.16540694 629.55448437 2352.11301708 C627.7590263 2352.1181954 625.96357492 2352.12644643 624.16814336 2352.13749257 C619.21529335 2352.1590084 614.26344652 2352.13672555 609.31067113 2352.10754563 C603.92989057 2352.08353535 598.54921324 2352.10009615 593.16841263 2352.11158806 C583.73181144 2352.12611809 574.29551886 2352.11457465 564.85895348 2352.08612061 C550.82712582 2352.04392781 536.79549332 2352.04176506 522.7636138 2352.04791453 C499.16147746 2352.05711891 475.559482 2352.03374611 451.95738602 2351.99179268 C428.58223061 2351.95034188 405.20713161 2351.92336836 381.8319397 2351.91582298 C381.10611896 2351.9155821 380.38029822 2351.91534122 379.63248291 2351.91509303 C373.00327261 2351.91290065 366.37406226 2351.91088682 359.74485184 2351.90908721 C343.26504314 2351.90461132 326.78523575 2351.89789598 310.3054285 2351.88966084 C309.554957 2351.88928761 308.80448549 2351.88891439 308.03127242 2351.88852986 C271.52110742 2351.8701772 235.01097965 2351.82602346 198.50084114 2351.77975845 C185.83028886 2351.7637169 173.15973644 2351.74778938 160.48918343 2351.73233414 C159.70335934 2351.73137549 158.91753525 2351.73041685 158.10789831 2351.72942915 C121.57997761 2351.68502427 85.05205051 2351.65894265 48.52410989 2351.63759057 C46.15281956 2351.63620412 43.78152923 2351.63480977 41.4102389 2351.63341382 C25.69563327 2351.62417538 9.98102748 2351.61525283 -5.73357845 2351.6065418 C-37.00200275 2351.58920609 -68.27042583 2351.5700143 -99.53884824 2351.54954747 C-101.02794716 2351.54857279 -102.51704609 2351.54759941 -104.00614501 2351.54662733 C-186.61423414 2351.49268773 -269.22228313 2351.40494651 -401.21717644 2351.25168228 C-400.27663917 2350.14476885 -399.33470576 2349.03904162 -398.39220142 2347.9338026 C-397.60562244 2347.00998048 -397.60562244 2347.00998048 -396.80315298 2346.06749529 C-394.48240748 2343.41043212 -392.01318299 2340.92366088 -389.50648308 2338.44333267 C-388.70273499 2337.64177498 -388.70273499 2337.64177498 -387.88274956 2336.8240242 C-386.73154885 2335.67659671 -385.57919564 2334.53032453 -384.42578125 2333.3851223 C-382.59367877 2331.56592161 -380.76483932 2329.74349474 -378.93676567 2327.92024612 C-374.39728098 2323.39404772 -369.85235547 2318.87332551 -365.3075695 2314.35245132 C-361.45935191 2310.52406436 -357.61325719 2306.69356781 -353.76987839 2302.86032295 C-351.98012875 2301.07699012 -350.18736238 2299.29673 -348.39443779 2297.51659012 C-343.41640227 2292.56069243 -338.53950271 2287.58281908 -333.9769268 2282.23628616 C-330.54816136 2278.36940746 -326.84126062 2274.7683086 -323.17201042 2271.13135147 C-321.68003401 2269.65236319 -320.1914009 2268.17007726 -318.70350456 2266.68698502 C-315.01049489 2263.00720841 -311.31200531 2259.33295601 -307.61366081 2255.65854263 C-304.4764734 2252.54122599 -301.34144042 2249.4217714 -298.2091198 2246.29956436 C-296.75619736 2244.8530316 -295.30025363 2243.40959061 -293.84412956 2241.96628189 C-289.34820783 2237.48690115 -285.01196424 2232.9565558 -280.88050652 2228.13986588 C-277.9268424 2224.78691736 -274.73906999 2221.67134181 -271.56092644 2218.53293228 C-270.8549633 2217.83075577 -270.14900017 2217.12857925 -269.42164421 2216.40512466 C-266.43820269 2213.43784462 -263.44876934 2210.47662865 -260.45985222 2207.51486588 C-258.26227065 2205.33549763 -256.06779706 2203.15303281 -253.87342644 2200.97043228 C-252.87780693 2199.98726028 -252.87780693 2199.98726028 -251.8620739 2198.98422623 C-248.03836547 2195.1803285 -244.43700495 2191.25501473 -240.91334343 2187.17270279 C-238.28525397 2184.19621888 -235.48240836 2181.41208658 -232.65467644 2178.62668228 C-232.05969353 2178.03548599 -231.46471062 2177.4442897 -230.85169792 2176.83517838 C-228.34618587 2174.34577155 -225.83465379 2171.86247215 -223.32362175 2169.37863541 C-214.39901341 2160.56730706 -214.39901341 2160.56730706 -206.00233269 2151.25949478 C-201.33489921 2146.00990877 -196.18644759 2141.17444549 -191.18739128 2136.24240494 C-185.95015286 2131.06905578 -180.81314924 2125.88607421 -176.02772331 2120.28488541 C-171.27616427 2114.94899224 -166.0412892 2110.04292216 -160.95545769 2105.02902603 C-156.45611027 2100.568634 -152.12072197 2096.06866166 -148.00037956 2091.25754166 C-143.66374825 2086.37942517 -138.89433133 2081.89444295 -134.24452019 2077.31808853 C-129.98245263 2073.09706818 -125.91059085 2068.81199838 -122.00428581 2064.26144791 C-117.8666148 2059.60826379 -113.32709412 2055.32619866 -108.88905144 2050.96261978 C-104.73050088 2046.84650341 -100.77234826 2042.65329351 -96.95936394 2038.21652603 C-93.24368111 2034.02596894 -89.1745193 2030.17152816 -85.17811394 2026.25168228 C-81.25730873 2022.37629181 -77.56042549 2018.39672143 -73.96327019 2014.22043228 C-71.03089243 2010.91412716 -67.87133885 2007.84449694 -64.71717644 2004.75168228 C-60.34970128 2000.43076531 -56.11083724 1996.10467705 -52.15077019 1991.40402603 C-48.70829576 1987.57209995 -44.99051241 1984.00666312 -41.33021355 1980.38425064 C-38.34900325 1977.42211246 -35.43146864 1974.46451795 -32.71717644 1971.25168228 C-28.86595428 1966.69309279 -24.57054512 1962.58066057 -20.33265495 1958.38669205 C-16.76019411 1954.8371041 -13.37113243 1951.22010349 -10.11952019 1947.37277603 C-6.89285432 1943.77507672 -3.41241412 1940.42789373 0.02305794 1937.03097916 C3.48685124 1933.59115674 6.75414841 1930.06605472 9.91172981 1926.34152603 C12.92433048 1922.97672153 16.16854398 1919.84623041 19.38072395 1916.67331314 C22.12624183 1913.94844149 24.77559832 1911.20135903 27.28282356 1908.25168228 C30.75892933 1904.16214608 34.56532012 1900.44207688 38.38047981 1896.67355728 C41.12607843 1893.94860227 43.77552308 1891.20144755 46.28282356 1888.25168228 C49.75825906 1884.16293464 53.56382594 1880.44351544 57.37828255 1876.67575455 C60.7334325 1873.34585898 63.88007808 1869.91236829 66.94297981 1866.31027603 C69.74049224 1863.18015067 72.74906862 1860.2648257 75.7361927 1857.31784439 C78.36322358 1854.71246858 80.88282925 1852.06706023 83.28282356 1849.25168228 C86.56515746 1845.40125213 90.13537205 1841.87022649 93.7337513 1838.3202858 C96.98282963 1835.0980178 100.0072622 1831.75827583 102.97422981 1828.27902603 C105.9581036 1824.93425174 109.18902089 1821.83833071 112.37657356 1818.68918228 C114.43731701 1816.60167593 116.37797982 1814.47999005 118.28282356 1812.25168228 C121.76734463 1808.17545009 125.56364338 1804.45617355 129.37657356 1800.68918228 C131.43731701 1798.60167593 133.37797982 1796.47999005 135.28282356 1794.25168228 C138.76614898 1790.17684878 142.56101064 1786.45875236 146.37266731 1782.69308853 C149.05136888 1779.97965501 151.52890474 1777.14391206 154.00547981 1774.24777603 C156.73381642 1771.18364415 159.67950264 1768.34686396 162.59922981 1765.46652603 C164.56257027 1763.47508768 166.40362026 1761.4386565 168.22032356 1759.31418228 C171.72751797 1755.22109925 175.54007515 1751.47943524 179.37266731 1747.69308853 C182.05136888 1744.97965501 184.52890474 1742.14391206 187.00547981 1739.24777603 C189.73259579 1736.18501501 192.67686993 1733.34944735 195.59532356 1730.47043228 C197.58002698 1728.45737596 199.44379273 1726.39721826 201.28282356 1724.25168228 C204.53446984 1720.45809496 208.03995451 1716.97775581 211.59532356 1713.47043228 C213.58002698 1711.45737596 215.44379273 1709.39721826 217.28282356 1707.25168228 C220.53446984 1703.45809496 224.03995451 1699.97775581 227.59532356 1696.47043228 C229.58002698 1694.45737596 231.44379273 1692.39721826 233.28282356 1690.25168228 C236.53446984 1686.45809496 240.03995451 1682.97775581 243.59532356 1679.47043228 C245.58002698 1677.45737596 247.44379273 1675.39721826 249.28282356 1673.25168228 C252.53327007 1669.45949469 256.03731925 1665.98032697 259.59141731 1662.47433853 C262.20383424 1659.82466789 264.61584977 1657.03995425 267.03672981 1654.21652603 C269.50763746 1651.43606396 272.16449296 1648.8605001 274.81407356 1646.25168228 C276.72268811 1644.31277226 278.50992908 1642.31468677 280.28282356 1640.25168228 C282.67958944 1637.46271835 285.16241747 1634.83177443 287.78282356 1632.25168228 C290.3826454 1629.69178094 292.84550754 1627.08388688 295.22032356 1624.31418228 C298.49413009 1620.50344165 302.01646327 1617.00090064 305.59141731 1613.47433853 C308.20383424 1610.82466789 310.61584977 1608.03995425 313.03672981 1605.21652603 C315.50763746 1602.43606396 318.16449296 1599.8605001 320.81407356 1597.25168228 C322.72268811 1595.31277226 324.50992908 1593.31468677 326.28282356 1591.25168228 C329.3004471 1587.7402658 332.51641437 1584.49860826 335.81407356 1581.25168228 C337.72268811 1579.31277226 339.50992908 1577.31468677 341.28282356 1575.25168228 C344.3004471 1571.7402658 347.51641437 1568.49860826 350.81407356 1565.25168228 C352.72268811 1563.31277226 354.50992908 1561.31468677 356.28282356 1559.25168228 C359.3004471 1555.7402658 362.51641437 1552.49860826 365.81407356 1549.25168228 C367.72268811 1547.31277226 369.50992908 1545.31468677 371.28282356 1543.25168228 C374.29924279 1539.74166718 377.51377488 1536.50116952 380.81016731 1533.25558853 C383.35620186 1530.66922077 385.70303913 1527.93632948 388.06797981 1525.18527603 C390.28451753 1522.6859909 392.65444638 1520.36886344 395.03672981 1518.02902603 C396.84759999 1516.18574655 398.5360371 1514.27345429 400.22032356 1512.31418228 C402.63900135 1509.50591881 405.14182039 1506.85197635 407.78282356 1504.25168228 C410.40322965 1501.67159013 412.88605768 1499.04064621 415.28282356 1496.25168228 C418.29924279 1492.74166718 421.51377488 1489.50116952 424.81016731 1486.25558853 C427.35620186 1483.66922077 429.70303913 1480.93632948 432.06797981 1478.18527603 C434.28451753 1475.6859909 436.65444638 1473.36886344 439.03672981 1471.02902603 C440.84759999 1469.18574655 442.5360371 1467.27345429 444.22032356 1465.31418228 C447.25962008 1461.78533465 450.49299204 1458.52163201 453.81016731 1455.25558853 C456.35620186 1452.66922077 458.70303913 1449.93632948 461.06797981 1447.18527603 C463.28451753 1444.6859909 465.65444638 1442.36886344 468.03672981 1440.02902603 C469.84759999 1438.18574655 471.5360371 1436.27345429 473.22032356 1434.31418228 C476.25962008 1430.78533465 479.49299204 1427.52163201 482.81016731 1424.25558853 C485.35620186 1421.66922077 487.70303913 1418.93632948 490.06797981 1416.18527603 C492.28451753 1413.6859909 494.65444638 1411.36886344 497.03672981 1409.02902603 C498.84759999 1407.18574655 500.5360371 1405.27345429 502.22032356 1403.31418228 C505.25962008 1399.78533465 508.49299204 1396.52163201 511.81016731 1393.25558853 C514.35620186 1390.66922077 516.70303913 1387.93632948 519.06797981 1385.18527603 C521.28451753 1382.6859909 523.65444638 1380.36886344 526.03672981 1378.02902603 C527.84759999 1376.18574655 529.5360371 1374.27345429 531.22032356 1372.31418228 C534.25962008 1368.78533465 537.49299204 1365.52163201 540.81016731 1362.25558853 C543.35620186 1359.66922077 545.70303913 1356.93632948 548.06797981 1354.18527603 C550.28451753 1351.6859909 552.65444638 1349.36886344 555.03672981 1347.02902603 C556.84759999 1345.18574655 558.5360371 1343.27345429 560.22032356 1341.31418228 C563.25962008 1337.78533465 566.49299204 1334.52163201 569.81016731 1331.25558853 C572.35620186 1328.66922077 574.70303913 1325.93632948 577.06797981 1323.18527603 C579.28451753 1320.6859909 581.65444638 1318.36886344 584.03672981 1316.02902603 C585.84759999 1314.18574655 587.5360371 1312.27345429 589.22032356 1310.31418228 C592.25962008 1306.78533465 595.49299204 1303.52163201 598.81016731 1300.25558853 C601.35620186 1297.66922077 603.70303913 1294.93632948 606.06797981 1292.18527603 C608.28451753 1289.6859909 610.65444638 1287.36886344 613.03672981 1285.02902603 C614.84759999 1283.18574655 616.5360371 1281.27345429 618.22032356 1279.31418228 C620.63900135 1276.50591881 623.14182039 1273.85197635 625.78282356 1271.25168228 C628.40322965 1268.67159013 630.88605768 1266.04064621 633.28282356 1263.25168228 C636.29924279 1259.74166718 639.51377488 1256.50116952 642.81016731 1253.25558853 C645.35620186 1250.66922077 647.70303913 1247.93632948 650.06797981 1245.18527603 C652.28451753 1242.6859909 654.65444638 1240.36886344 657.03672981 1238.02902603 C658.84759999 1236.18574655 660.5360371 1234.27345429 662.22032356 1232.31418228 C664.63900135 1229.50591881 667.14182039 1226.85197635 669.78282356 1224.25168228 C672.40322965 1221.67159013 674.88605768 1219.04064621 677.28282356 1216.25168228 C680.3004471 1212.7402658 683.51641437 1209.49860826 686.81407356 1206.25168228 C688.72268811 1204.31277226 690.50992908 1202.31468677 692.28282356 1200.25168228 C695.3004471 1196.7402658 698.51641437 1193.49860826 701.81407356 1190.25168228 C703.72268811 1188.31277226 705.50992908 1186.31468677 707.28282356 1184.25168228 C710.3004471 1180.7402658 713.51641437 1177.49860826 716.81407356 1174.25168228 C718.72268811 1172.31277226 720.50992908 1170.31468677 722.28282356 1168.25168228 C725.3004471 1164.7402658 728.51641437 1161.49860826 731.81407356 1158.25168228 C733.72268811 1156.31277226 735.50992908 1154.31468677 737.28282356 1152.25168228 C740.3004471 1148.7402658 743.51641437 1145.49860826 746.81407356 1142.25168228 C748.72268811 1140.31277226 750.50992908 1138.31468677 752.28282356 1136.25168228 C755.3004471 1132.7402658 758.51641437 1129.49860826 761.81407356 1126.25168228 C763.72268811 1124.31277226 765.50992908 1122.31468677 767.28282356 1120.25168228 C770.3004471 1116.7402658 773.51641437 1113.49860826 776.81407356 1110.25168228 C778.72268811 1108.31277226 780.50992908 1106.31468677 782.28282356 1104.25168228 C784.67958944 1101.46271835 787.16241747 1098.83177443 789.78282356 1096.25168228 C792.3826454 1093.69178094 794.84550754 1091.08388688 797.22032356 1088.31418228 C799.78947627 1085.32366512 802.47599612 1082.52051544 805.28282356 1079.75168228 C808.06903497 1077.00312238 810.73590748 1074.22308437 813.28282356 1071.25168228 C816.53327007 1067.45949469 820.03731925 1063.98032697 823.59141731 1060.47433853 C826.20383424 1057.82466789 828.61584977 1055.03995425 831.03672981 1052.21652603 C833.50885774 1049.4346908 836.16712903 1046.85792277 838.81797981 1044.24777603 C840.705131 1042.33061051 842.46967731 1040.35592906 844.22032356 1038.31418228 C846.78947627 1035.32366512 849.47599612 1032.52051544 852.28282356 1029.75168228 C855.06903497 1027.00312238 857.73590748 1024.22308437 860.28282356 1021.25168228 C862.82973964 1018.28028019 865.49661216 1015.50024218 868.28282356 1012.75168228 C871.04842764 1010.02338821 873.69569387 1007.26651394 876.22032356 1004.31418228 C879.72751797 1000.22109925 883.54007515 996.47943524 887.37266731 992.69308853 C890.05136888 989.97965501 892.52890474 987.14391206 895.00547981 984.24777603 C897.73381642 981.18364415 900.67950264 978.34686396 903.59922981 975.46652603 C905.56257027 973.47508768 907.40362026 971.4386565 909.22032356 969.31418228 C911.93901604 966.14132308 914.81034031 963.18829847 917.78282356 960.25168228 C920.73465381 957.33541625 923.58671215 954.40562393 926.28282356 951.25168228 C929.76734463 947.17545009 933.56364338 943.45617355 937.37657356 939.68918228 C939.43731701 937.60167593 941.37797982 935.47999005 943.28282356 933.25168228 C945.97893497 930.09774063 948.83099331 927.16794831 951.78282356 924.25168228 C954.71400548 921.35576271 957.54685531 918.44925657 960.22032356 915.31418228 C963.52628474 911.4455043 967.11427034 907.89103923 970.73350716 904.32052994 C973.98266529 901.09817819 977.00718691 897.75836412 979.97422981 894.27902603 C982.15240848 891.83739594 984.45530364 889.55120196 986.78282356 887.25168228 C989.69336157 884.37610569 992.50706378 881.49294134 995.15782356 878.37668228 C998.19713079 874.81882027 1001.4564605 871.53726234 1004.78282356 868.25168228 C1008.68178451 864.40046615 1012.39106658 860.48746494 1015.94297981 856.31027603 C1018.74118148 853.17937947 1021.75056012 850.26338533 1024.73838997 847.31564713 C1027.34403095 844.73145911 1029.84335465 842.10959071 1032.22032356 839.31418228 C1035.23635205 835.77489102 1038.4773058 832.51674083 1041.78282356 829.25168228 C1045.04665289 826.02770435 1048.2511252 822.81650354 1051.22032356 819.31418228 C1054.38292338 815.59210535 1057.81253052 812.18302156 1061.28282356 808.75168228 C1064.73220239 805.34097904 1068.14402258 801.95546744 1071.28282356 798.25168228 C1074.42162497 794.54789662 1077.83345032 791.16239084 1081.28282356 787.75168228 C1084.71127184 784.36162111 1088.10543077 780.99974246 1091.22032356 777.31418228 C1094.52855014 773.40898249 1098.14796097 769.84887302 1101.78282356 766.25168228 C1107.19777224 760.90703034 1107.19777224 760.90703034 1112.28282356 755.25168228 C1115.5667931 751.36453467 1119.168962 747.82813811 1122.78282356 744.25168228 C1128.16820636 738.93966668 1128.16820636 738.93966668 1133.22032356 733.31418228 C1137.24329059 728.55041314 1141.74244261 724.24265339 1146.19078255 719.88083267 C1149.33768386 716.77658453 1152.3661078 713.63295149 1155.25157356 710.28293228 C1159.5142227 705.33941006 1164.16482524 700.81952738 1168.82188606 696.25168228 C1172.07912334 693.03217362 1175.23453162 689.78843327 1178.22032356 686.31418228 C1182.88369101 680.90002325 1188.0190893 675.96904516 1193.11094856 670.96261978 C1196.61375284 667.49555841 1200.04046078 664.02363626 1203.25157356 660.28293228 C1208.09578385 654.64623597 1213.46213429 649.52781091 1218.75547981 644.31808853 C1222.35500586 640.75322886 1225.89495624 637.19641229 1229.18907356 633.34543228 C1234.1973265 627.5111957 1239.76860385 622.20940158 1245.23985481 616.81515884 C1250.38722418 611.73369246 1255.42107142 606.62443055 1260.12413216 601.12424088 C1262.48499269 598.45897736 1265.02518351 595.9996213 1267.57945442 593.52121353 C1290.11207561 571.64625998 1306.06961289 544.15804019 1306.98594856 512.03683853 C1307.46161875 477.48451739 1296.42924723 446.26038869 1272.52501106 420.90402603 C1260.29265714 409.07244724 1246.16465251 400.41485798 1230.28282356 394.37668228 C1229.57295296 394.10243423 1228.86308235 393.82818619 1228.13170052 393.54562759 C1213.5382035 388.31335275 1198.97076258 387.81629791 1183.66563702 387.87415886 C1181.55588606 387.87102426 1179.44613672 387.86657667 1177.33639094 387.86094576 C1171.55291154 387.8492993 1165.76958306 387.85623471 1159.98610621 387.86627962 C1153.68846076 387.87390462 1147.39083806 387.864104 1141.09319586 387.85654962 C1130.05983311 387.84572112 1119.02651534 387.84593775 1107.99315071 387.8536911 C1096.15882701 387.86195651 1084.32452912 387.86367654 1072.49020386 387.8574791 C1071.74161352 387.85709158 1070.99302319 387.85670406 1070.2217483 387.8563048 C1067.17262013 387.8547049 1064.123492 387.85305877 1061.07436389 387.85135397 C1032.69571078 387.83549851 1004.31707496 387.83440463 975.93841934 387.84279633 C975.09802548 387.84304471 974.25763163 387.8432931 973.39177129 387.84354901 C972.55001909 387.8437978 971.70826688 387.84404659 970.84100704 387.84430292 C945.1811781 387.85187685 919.52135631 387.85382464 893.86152649 387.85023499 C892.14224338 387.85000255 890.42296026 387.84977108 888.70367715 387.84954058 C881.79415 387.84860913 874.88462285 387.84765313 867.9750957 387.84666128 C848.65924998 387.84391028 829.34340423 387.84219845 810.02755833 387.84130287 C809.14794876 387.84126193 808.2683392 387.841221 807.3620748 387.84117882 C779.33470328 387.83995103 751.30733424 387.84333119 723.27996349 387.84985161 C722.37099389 387.85006236 721.46202428 387.8502731 720.52551014 387.85049024 C705.76526451 387.85392492 691.00501894 387.85758339 676.24477337 387.86126076 C617.75004427 387.8758186 559.25533577 387.87516299 500.76060677 387.860569 C486.02797924 387.85690517 471.2953517 387.8532719 456.56272411 387.84985161 C455.2018547 387.84953459 455.2018547 387.84953459 453.81349298 387.84921117 C425.8301857 387.84273718 397.84688013 387.84000086 369.86357212 387.84130287 C368.98438243 387.84134362 368.10519274 387.84138438 367.19936093 387.84142637 C347.89438882 387.84236405 328.58941688 387.84426545 309.28444495 387.84703438 C302.37579649 387.84802173 295.46714802 387.84896099 288.55849955 387.84988651 C286.83991131 387.85011868 285.12132307 387.85035487 283.40273484 387.8505951 C257.76403054 387.85416913 232.12533432 387.85113951 206.48663103 387.84354901 C205.6476447 387.84330063 204.80865836 387.84305224 203.9442482 387.84279633 C203.10681952 387.84254828 202.26939083 387.84230023 201.40658552 387.84204467 C173.08937416 387.83374889 144.7721835 387.83685614 116.45497508 387.85263856 C113.40640385 387.85429544 110.3578326 387.85590558 107.30926132 387.8574791 C106.56113837 387.85786972 105.81301541 387.85826034 105.04222206 387.85866279 C93.25305521 387.86455253 81.46391434 387.86048966 69.67474985 387.85217208 C58.04861466 387.84418564 46.4225315 387.84736229 34.79640064 387.86121434 C28.59138442 387.8683081 22.38646536 387.87088056 16.1814524 387.85999639 C-74.05522015 387.71360135 -160.03504844 405.5244841 -345.21717644 513.25168228 C-345.80901726 513.74442642 -346.40085808 514.23717056 -347.01063347 514.74484634 C-354.22241791 520.75769942 -361.28032827 526.92275821 -368.21717644 533.25168228 C-369.53008659 534.42537369 -369.53008659 534.42537369 -370.86952019 535.62277603 C-377.39762419 541.50612902 -383.68037226 547.61012673 -389.90467644 553.81418228 C-390.70776237 554.61267593 -391.51084831 555.41116959 -392.33827019 556.23386002 C-393.45975456 557.35836563 -393.45975456 557.35836563 -394.60389519 558.50558853 C-395.61262688 559.51601212 -395.61262688 559.51601212 -396.64173698 560.5468483 C-398.29708782 562.17934747 -398.29708782 562.17934747 -399.21717644 564.25168228 C-399.87717644 564.25168228 -400.53717644 564.25168228 -401.21717644 564.25168228 C-401.26417067 540.12727395 -401.29929827 516.0028726 -401.32080078 491.87842751 C-401.33105596 480.67372851 -401.34500423 469.46905818 -401.36805534 458.26437759 C-401.38816761 448.48344006 -401.40093454 438.7025233 -401.40535343 428.92156565 C-401.40793105 423.75622201 -401.41386487 418.59093775 -401.42863655 413.4256134 C-401.72031408 307.10733764 -374.50756834 208.86904501 -286.35023308 111.26999283 C-285.17062004 110.08530411 -285.17062004 110.08530411 -283.96717644 108.87668228 C-283.22266228 108.12749527 -282.47814812 107.37830826 -281.71107292 106.60641861 C-225.73225344 50.78933369 -148.93453796 15.53866206 -71.27967644 4.00168228 C-70.28331169 3.8505397 -69.28694695 3.69939713 -68.26038933 3.54367447 C-45.63056541 0.41891424 -22.80608018 -0.04299777 0 0 Z " fill="#0567FC" transform="translate(1850.217176437378,1561.7483177185059)"/>
<path d="M0 0 C4.43441875 0.00696379 8.86882865 0.00210895 13.30324952 -0.00115498 C21.05184038 -0.00527449 28.80040032 -0.00206317 36.54898755 0.00612144 C48.07061121 0.01825732 59.59221562 0.01878697 71.11384451 0.01703746 C90.50079503 0.01441747 109.88773186 0.02106269 129.27467839 0.03307227 C148.45752007 0.04492484 167.64035603 0.0526079 186.82320134 0.0547779 C188.01796886 0.05491538 189.21273638 0.05505286 190.44370898 0.0551945 C196.51185273 0.05587121 202.57999648 0.05647396 208.64814024 0.05704826 C251.5777645 0.06124398 294.50738132 0.07470444 337.43700139 0.09365348 C379.13068589 0.11203568 420.82436834 0.12619637 462.51805608 0.1346691 C463.8042697 0.13493216 465.09048333 0.13519521 466.41567312 0.13546623 C479.33289637 0.13810338 492.25011963 0.14065499 505.1673429 0.14314395 C531.47890886 0.14821576 557.79047469 0.15385826 584.10204045 0.15984611 C585.31168244 0.16012069 586.52132442 0.16039527 587.76762222 0.16067817 C668.48277644 0.17906531 749.19792654 0.21075404 829.91307561 0.24453239 C828.43038984 3.35117905 826.94009543 5.44543546 824.46385686 7.85390739 C823.43808538 8.86324332 823.43808538 8.86324332 822.39159124 9.89296989 C821.67680608 10.58648551 820.96202092 11.28000114 820.22557561 11.99453239 C815.49384643 16.60785871 810.95760151 21.27359119 806.64818303 26.28457145 C803.13795576 30.24969099 799.3000163 33.89649769 795.51854436 37.60000114 C792.36863786 40.71077836 789.33421601 43.85812618 786.44432561 47.21328239 C782.18167648 52.15680461 777.53107393 56.67668729 772.87401311 61.24453239 C768.9532079 65.11992286 765.25632466 69.09949324 761.65916936 73.27578239 C758.14217108 77.24125695 754.30345864 80.89312632 750.51854436 84.60000114 C747.36863786 87.71077836 744.33421601 90.85812618 741.44432561 94.21328239 C737.18167648 99.15680461 732.53107393 103.67668729 727.87401311 108.24453239 C723.9532079 112.11992286 720.25632466 116.09949324 716.65916936 120.27578239 C713.14217108 124.24125695 709.30345864 127.89312632 705.51854436 131.60000114 C702.36863786 134.71077836 699.33421601 137.85812618 696.44432561 141.21328239 C692.18167648 146.15680461 687.53107393 150.67668729 682.87401311 155.24453239 C678.9532079 159.11992286 675.25632466 163.09949324 671.65916936 167.27578239 C668.72679126 170.5820879 665.56723429 173.65171354 662.41307561 176.74453239 C656.73707167 182.32904446 656.73707167 182.32904446 651.41307561 188.24453239 C647.41593142 192.99114112 642.93184252 197.27474866 638.50487249 201.61562614 C635.35805083 204.71979015 632.3297157 207.86335103 629.44432561 211.21328239 C625.18167648 216.15680461 620.53107393 220.67668729 615.87401311 225.24453239 C611.9532079 229.11992286 608.25632466 233.09949324 604.65916936 237.27578239 C601.14217108 241.24125695 597.30345864 244.89312632 593.51854436 248.60000114 C590.36863786 251.71077836 587.33421601 254.85812618 584.44432561 258.21328239 C580.18167648 263.15680461 575.53107393 267.67668729 570.87401311 272.24453239 C566.9532079 276.11992286 563.25632466 280.09949324 559.65916936 284.27578239 C556.14217108 288.24125695 552.30345864 291.89312632 548.51854436 295.60000114 C545.36863786 298.71077836 542.33421601 301.85812618 539.44432561 305.21328239 C535.18167648 310.15680461 530.53107393 314.67668729 525.87401311 319.24453239 C521.9532079 323.11992286 518.25632466 327.09949324 514.65916936 331.27578239 C511.14217108 335.24125695 507.30345864 338.89312632 503.51854436 342.60000114 C500.36863786 345.71077836 497.33421601 348.85812618 494.44432561 352.21328239 C490.18167648 357.15680461 485.53107393 361.67668729 480.87401311 366.24453239 C476.9532079 370.11992286 473.25632466 374.09949324 469.65916936 378.27578239 C466.72679126 381.5820879 463.56723429 384.65171354 460.41307561 387.74453239 C454.73707167 393.32904446 454.73707167 393.32904446 449.41307561 399.24453239 C445.41593142 403.99114112 440.93184252 408.27474866 436.50487249 412.61562614 C433.35805083 415.71979015 430.3297157 418.86335103 427.44432561 422.21328239 C423.18167648 427.15680461 418.53107393 431.67668729 413.87401311 436.24453239 C409.9532079 440.11992286 406.25632466 444.09949324 402.65916936 448.27578239 C399.14217108 452.24125695 395.30345864 455.89312632 391.51854436 459.60000114 C388.36863786 462.71077836 385.33421601 465.85812618 382.44432561 469.21328239 C378.18167648 474.15680461 373.53107393 478.67668729 368.87401311 483.24453239 C364.9532079 487.11992286 361.25632466 491.09949324 357.65916936 495.27578239 C354.14217108 499.24125695 350.30345864 502.89312632 346.51854436 506.60000114 C343.36863786 509.71077836 340.33421601 512.85812618 337.44432561 516.21328239 C333.18167648 521.15680461 328.53107393 525.67668729 323.87401311 530.24453239 C319.9532079 534.11992286 316.25632466 538.09949324 312.65916936 542.27578239 C309.14217108 546.24125695 305.30345864 549.89312632 301.51854436 553.60000114 C298.36863786 556.71077836 295.33421601 559.85812618 292.44432561 563.21328239 C288.18167648 568.15680461 283.53107393 572.67668729 278.87401311 577.24453239 C274.9532079 581.11992286 271.25632466 585.09949324 267.65916936 589.27578239 C264.72679126 592.5820879 261.56723429 595.65171354 258.41307561 598.74453239 C252.73707167 604.32904446 252.73707167 604.32904446 247.41307561 610.24453239 C243.41593142 614.99114112 238.93184252 619.27474866 234.50487249 623.61562614 C231.35805083 626.71979015 228.3297157 629.86335103 225.44432561 633.21328239 C221.18167648 638.15680461 216.53107393 642.67668729 211.87401311 647.24453239 C207.9532079 651.11992286 204.25632466 655.09949324 200.65916936 659.27578239 C197.14217108 663.24125695 193.30345864 666.89312632 189.51854436 670.60000114 C186.36863786 673.71077836 183.33421601 676.85812618 180.44432561 680.21328239 C176.18167648 685.15680461 171.53107393 689.67668729 166.87401311 694.24453239 C162.9532079 698.11992286 159.25632466 702.09949324 155.65916936 706.27578239 C152.14217108 710.24125695 148.30345864 713.89312632 144.51854436 717.60000114 C141.36863786 720.71077836 138.33421601 723.85812618 135.44432561 727.21328239 C131.18167648 732.15680461 126.53107393 736.67668729 121.87401311 741.24453239 C117.9532079 745.11992286 114.25632466 749.09949324 110.65916936 753.27578239 C107.14217108 757.24125695 103.30345864 760.89312632 99.51854436 764.60000114 C96.36863786 767.71077836 93.33421601 770.85812618 90.44432561 774.21328239 C86.18167648 779.15680461 81.53107393 783.67668729 76.87401311 788.24453239 C72.9532079 792.11992286 69.25632466 796.09949324 65.65916936 800.27578239 C62.14217108 804.24125695 58.30345864 807.89312632 54.51854436 811.60000114 C51.36863786 814.71077836 48.33421601 817.85812618 45.44432561 821.21328239 C41.18167648 826.15680461 36.53107393 830.67668729 31.87401311 835.24453239 C27.9532079 839.11992286 24.25632466 843.09949324 20.65916936 847.27578239 C17.72679126 850.5820879 14.56723429 853.65171354 11.41307561 856.74453239 C5.73707167 862.32904446 5.73707167 862.32904446 0.41307561 868.24453239 C-3.58406858 872.99114112 -8.06815748 877.27474866 -12.49512751 881.61562614 C-15.64194917 884.71979015 -18.6702843 887.86335103 -21.55567439 891.21328239 C-25.81832352 896.15680461 -30.46892607 900.67668729 -35.12598689 905.24453239 C-39.0467921 909.11992286 -42.74367534 913.09949324 -46.34083064 917.27578239 C-49.85782892 921.24125695 -53.69654136 924.89312632 -57.48145564 928.60000114 C-60.63136214 931.71077836 -63.66578399 934.85812618 -66.55567439 938.21328239 C-70.81832352 943.15680461 -75.46892607 947.67668729 -80.12598689 952.24453239 C-84.0467921 956.11992286 -87.74367534 960.09949324 -91.34083064 964.27578239 C-94.85782892 968.24125695 -98.69654136 971.89312632 -102.48145564 975.60000114 C-105.63136214 978.71077836 -108.66578399 981.85812618 -111.55567439 985.21328239 C-115.81832352 990.15680461 -120.46892607 994.67668729 -125.12598689 999.24453239 C-129.0467921 1003.11992286 -132.74367534 1007.09949324 -136.34083064 1011.27578239 C-139.85782892 1015.24125695 -143.69654136 1018.89312632 -147.48145564 1022.60000114 C-150.63136214 1025.71077836 -153.66578399 1028.85812618 -156.55567439 1032.21328239 C-160.81832352 1037.15680461 -165.46892607 1041.67668729 -170.12598689 1046.24453239 C-174.0467921 1050.11992286 -177.74367534 1054.09949324 -181.34083064 1058.27578239 C-184.27320874 1061.5820879 -187.43276571 1064.65171354 -190.58692439 1067.74453239 C-196.26292833 1073.32904446 -196.26292833 1073.32904446 -201.58692439 1079.24453239 C-205.58406858 1083.99114112 -210.06815748 1088.27474866 -214.49512751 1092.61562614 C-217.64194917 1095.71979015 -220.6702843 1098.86335103 -223.55567439 1102.21328239 C-227.81832352 1107.15680461 -232.46892607 1111.67668729 -237.12598689 1116.24453239 C-241.0467921 1120.11992286 -244.74367534 1124.09949324 -248.34083064 1128.27578239 C-251.85782892 1132.24125695 -255.69654136 1135.89312632 -259.48145564 1139.60000114 C-262.63136214 1142.71077836 -265.66578399 1145.85812618 -268.55567439 1149.21328239 C-272.81832352 1154.15680461 -277.46892607 1158.67668729 -282.12598689 1163.24453239 C-286.0467921 1167.11992286 -289.74367534 1171.09949324 -293.34083064 1175.27578239 C-296.85782892 1179.24125695 -300.69654136 1182.89312632 -304.48145564 1186.60000114 C-307.63136214 1189.71077836 -310.66578399 1192.85812618 -313.55567439 1196.21328239 C-317.81832352 1201.15680461 -322.46892607 1205.67668729 -327.12598689 1210.24453239 C-331.0467921 1214.11992286 -334.74367534 1218.09949324 -338.34083064 1222.27578239 C-341.85782892 1226.24125695 -345.69654136 1229.89312632 -349.48145564 1233.60000114 C-352.63136214 1236.71077836 -355.66578399 1239.85812618 -358.55567439 1243.21328239 C-362.81832352 1248.15680461 -367.46892607 1252.67668729 -372.12598689 1257.24453239 C-376.0467921 1261.11992286 -379.74367534 1265.09949324 -383.34083064 1269.27578239 C-386.27317148 1272.58204589 -389.43234557 1275.65219638 -392.58692439 1278.74453239 C-397.17498789 1283.27303254 -401.65514189 1287.78834101 -405.69239314 1292.82656364 C-407.32658567 1294.48822158 -408.99553168 1295.24808452 -411.08692439 1296.24453239 C-411.121221 1210.11616213 -411.15301754 1123.98779105 -411.17161067 1037.85941581 C-411.17188678 1036.58365389 -411.1721629 1035.30789197 -411.17244738 1033.9934706 C-411.17828809 1006.93973956 -411.18372706 979.88600845 -411.18868375 952.83227723 C-411.19117438 939.24070846 -411.19374432 925.6491397 -411.19638927 912.05757095 C-411.19678777 910.00743438 -411.19718401 907.9572978 -411.19758015 905.90716123 C-411.20369445 874.36725303 -411.21150133 842.82734638 -411.22425349 811.2874401 C-411.22452729 810.61017546 -411.22480109 809.93291083 -411.22508318 809.23512302 C-411.22950749 798.31678903 -411.23407488 787.39845509 -411.23866127 776.48012116 C-411.25786909 730.74658716 -411.27063957 685.01305633 -411.27475437 639.27951792 C-411.27533064 632.90867498 -411.27598191 626.53783205 -411.27667888 620.16698913 C-411.27681372 618.9131786 -411.27694857 617.65936808 -411.2770875 616.3675633 C-411.27944625 596.22605716 -411.2887097 576.08455989 -411.30058846 555.94305736 C-411.31239682 535.66900465 -411.31685189 515.39496069 -411.31392714 495.12090466 C-411.31241189 483.09200119 -411.31640845 471.0631299 -411.32851948 459.03423227 C-411.33607406 450.97653735 -411.33621359 442.91886325 -411.33058802 434.86116684 C-411.32759715 430.2843862 -411.32757796 425.70766597 -411.33669075 421.13089207 C-411.47000451 349.82402387 -400.34666728 281.02076874 -367.07129939 217.14394645 C-366.07100952 215.21382364 -365.09383234 213.27314316 -364.11817439 211.33046989 C-354.92925886 193.26024498 -344.04525137 175.97625134 -331.50440486 160.04726676 C-330.06117934 158.21179014 -328.63713551 156.36264463 -327.21583064 154.51015739 C-322.48000082 148.36858194 -317.61862054 142.42254987 -312.35254939 136.72109489 C-311.11527451 135.36862545 -309.88545918 134.00853533 -308.69532283 132.61440543 C-303.56991661 126.61842703 -298.05637784 121.02785333 -292.48194392 115.45424918 C-290.84864991 113.81877357 -289.22353969 112.17545531 -287.59864314 110.53164176 C-281.08388682 103.98195179 -274.34118876 97.98131575 -267.08692439 92.24453239 C-265.79281507 91.17221273 -264.50204921 90.09583539 -263.21583064 89.01406364 C-208.96052419 43.83007035 -142.13720912 15.56980687 -72.71192439 4.43203239 C-71.5024615 4.23681998 -70.29299861 4.04160758 -69.04688533 3.84047965 C-46.08039067 0.38084209 -23.16902197 -0.04826103 0 0 Z " fill="#0567FC" transform="translate(1860.0869243890047,2226.755467614159)"/>
<path d="M0 0 C0.54317871 0.44553223 1.08635742 0.89106445 1.64599609 1.35009766 C12.52406082 10.31248777 22.87936613 19.81531512 32.875 29.75 C33.38611328 30.25644043 33.89722656 30.76288086 34.42382812 31.28466797 C87.607233 84.69225711 121.09506555 157.98112404 133.25 231.75 C133.40114258 232.65758057 133.55228516 233.56516113 133.70800781 234.50024414 C136.48361828 252.44303077 137.38043544 270.42889113 137.3125 288.5625 C137.31100952 289.55758575 137.30951904 290.55267151 137.3079834 291.57791138 C137.26340278 308.2309344 136.44300254 324.50647381 134 341 C133.7831958 342.50578613 133.7831958 342.50578613 133.56201172 344.04199219 C123.55667766 411.69710822 92.73709114 474.34532254 48.25 525.9375 C47.73139404 526.54005615 47.21278809 527.1426123 46.6784668 527.76342773 C43.46537744 531.4488652 40.11739858 534.94332135 36.61669922 538.35693359 C34.93760256 540.0634151 33.40379254 541.84601727 31.875 543.6875 C27.20915443 549.09778386 21.87050492 553.79424832 16.57519531 558.57324219 C15.18424916 559.83311344 13.80596428 561.10693281 12.4296875 562.3828125 C5.60304906 568.6687271 -1.62129794 574.38314334 -9 580 C-9.89960449 580.68497559 -9.89960449 580.68497559 -10.81738281 581.38378906 C-57.04784442 616.37370809 -111.25808014 639.81201239 -168.5 649.1875 C-169.43481201 649.34234863 -170.36962402 649.49719727 -171.33276367 649.65673828 C-189.51756497 652.48422029 -207.61707894 653.3810616 -226 653.3125 C-227.07293304 653.31001251 -228.14586609 653.30752502 -229.25131226 653.30496216 C-268.23176918 653.16569069 -305.95578429 647.19506498 -343 635 C-344.34288086 634.5673584 -344.34288086 634.5673584 -345.71289062 634.12597656 C-409.39140466 613.50145406 -472.90756082 572.47538151 -514 519 C-514.87234444 517.94722887 -515.74895018 516.8979798 -516.62890625 515.8515625 C-530.66760155 499.01798365 -542.59386967 480.26959404 -553 461 C-553.44649902 460.17419434 -553.89299805 459.34838867 -554.35302734 458.49755859 C-575.13993047 419.56909024 -587.45499967 376.66687758 -593 333 C-593.11859375 332.08798828 -593.2371875 331.17597656 -593.359375 330.23632812 C-605.00055611 235.92890262 -577.4670061 138.41129702 -519.71826172 63.34204102 C-517.51763709 60.52906519 -515.27172462 57.75576851 -513 55 C-512.5447998 54.44715332 -512.08959961 53.89430664 -511.62060547 53.32470703 C-499.72985998 38.98064344 -487.03569072 25.26741473 -473 13 C-472.46729492 12.52788086 -471.93458984 12.05576172 -471.38574219 11.56933594 C-403.01136258 -48.99082886 -314.54722998 -79.64152713 0 0 Z " fill="#0567FC" transform="translate(3889,3260)"/>
</svg>
