<?xml version="1.0" encoding="UTF-8"?>
<svg id="Layer_1" data-name="Layer 1" xmlns="http://www.w3.org/2000/svg" viewBox="0 0 30.13 27.49">
  <defs>
    <style>
      .cls-1 {
        fill: #0567fc;
        stroke-width: 0px;
      }
    </style>
  </defs>
  <path class="cls-1" d="m21.58,23.21h0c0-2.36,1.91-4.27,4.27-4.27h0c3.76,0,5.69,4.51,3.09,7.23h0c-2.66,2.78-7.36.9-7.36-2.96Z"/>
  <path class="cls-1" d="m0,22.93v-10.48C0,9.87,2.09,7.78,4.67,7.78h9.83L0,22.93Z"/>
  <path class="cls-1" d="m29.57,3.9c-.9-2-2.75-3.42-4.9-3.81-.4-.07-.8-.09-1.2-.09H4.51C2.02,0,0,2.02,0,4.51h0v2.07h0c1.23-1.32,2.95-2.07,4.75-2.07h13.85c1.23,0,1.85,1.47,1,2.36-3.5,3.61-7.25,7.65-10.93,11.58-1.11,1.18-2.21,2.36-3.3,3.51-1.84,1.94-3.64,3.81-5.36,5.54h12.23l15.94-16.26c1.16-1.18,1.87-2.74,1.95-4.39.05-.9-.08-1.91-.55-2.94Z"/>
</svg>