<?xml version="1.0" encoding="utf-8"?>
<!-- Generator: Adobe Illustrator 28.0.0, SVG Export Plug-In . SVG Version: 6.00 Build 0)  -->
<svg version="1.1" id="Layer_1" xmlns="http://www.w3.org/2000/svg" xmlns:xlink="http://www.w3.org/1999/xlink" x="0px" y="0px"
	 viewBox="0 0 1314.14 1314.14" style="enable-background:new 0 0 1314.14 1314.14;" xml:space="preserve">
<style type="text/css">
	.st0{fill:#FFFFFF;}
	.st1{fill:#0567FC;}
</style>
<rect class="st1" width="1314.14" height="1314.14"/>
<g>
	<g>
		<path class="st0" d="M790.65,851.23L790.65,851.23c0-48.42,39.25-87.67,87.67-87.67h0c77.19,0,116.71,92.54,63.33,148.3l0,0
			C887,968.94,790.65,930.26,790.65,851.23z"/>
		<path class="st0" d="M347.97,845.4V630.38c0-52.9,42.89-95.79,95.79-95.79h201.77L347.97,845.4z"/>
		<path class="st0" d="M954.65,455.03c-18.54-41.06-56.41-70.07-100.56-78.09c-8.11-1.47-16.38-1.88-24.62-1.88l-389.04,0
			c-51.07,0-92.46,41.4-92.46,92.46v0v42.53l0,0c25.15-27.12,60.47-42.53,97.45-42.53l284.11,0c25.2,0,37.98,30.26,20.44,48.36
			c-71.86,74.16-148.73,157.02-224.29,237.62c-22.78,24.29-45.44,48.39-67.8,71.97c-37.74,39.8-74.66,78.14-109.91,113.6h250.94
			l327.07-333.61c23.75-24.23,38.3-56.19,40.02-90.08C966.93,496.95,964.26,476.31,954.65,455.03z"/>
	</g>
</g>
</svg>
